<svg width="152" height="80" viewBox="0 0 152 80" fill="none" xmlns="http://www.w3.org/2000/svg">
<g clip-path="url(#clip0_1_730)">
<path d="M0 0H152V80H0V0Z" fill="#4D4D4D"/>
<path d="M-2.85 16.4H14.44V63.4H-2.85V16.4Z" stroke="#1A1A1A" stroke-width="6" stroke-miterlimit="10"/>
<path d="M76 0V80" stroke="#1A1A1A" stroke-width="6" stroke-miterlimit="10"/>
<path d="M76 55.4C84.0799 55.4 90.63 48.5052 90.63 40C90.63 31.4948 84.0799 24.6 76 24.6C67.9201 24.6 61.37 31.4948 61.37 40C61.37 48.5052 67.9201 55.4 76 55.4Z" stroke="#1A1A1A" stroke-width="6" stroke-miterlimit="10"/>
<path d="M137.56 16.6H154.85V63.6H137.56V16.6Z" stroke="#1A1A1A" stroke-width="6" stroke-miterlimit="10"/>
<path d="M7.6 0V80" stroke="#1A1A1A" stroke-miterlimit="10"/>
<path d="M152 72.1L0 71.9" stroke="#1A1A1A" stroke-miterlimit="10"/>
<path d="M152 64.1L0 63.9" stroke="#1A1A1A" stroke-miterlimit="10"/>
<path d="M152 56.1L0 55.9" stroke="#1A1A1A" stroke-miterlimit="10"/>
<path d="M152 48.1L0 47.9" stroke="#1A1A1A" stroke-miterlimit="10"/>
<path d="M152 40.1L0 39.9" stroke="#1A1A1A" stroke-miterlimit="10"/>
<path d="M152 32.1L0 31.9" stroke="#1A1A1A" stroke-miterlimit="10"/>
<path d="M152 24.1L0 23.9" stroke="#1A1A1A" stroke-miterlimit="10"/>
<path d="M152 16.1L0 15.9" stroke="#1A1A1A" stroke-miterlimit="10"/>
<path d="M152 8.10002L0 7.90002" stroke="#1A1A1A" stroke-miterlimit="10"/>
<path d="M15.2 0V80" stroke="#1A1A1A" stroke-miterlimit="10"/>
<path d="M22.8 0V80" stroke="#1A1A1A" stroke-miterlimit="10"/>
<path d="M30.4 0V80" stroke="#1A1A1A" stroke-miterlimit="10"/>
<path d="M38 0V80" stroke="#1A1A1A" stroke-miterlimit="10"/>
<path d="M45.6 0V80" stroke="#1A1A1A" stroke-miterlimit="10"/>
<path d="M53.2 0V80" stroke="#1A1A1A" stroke-miterlimit="10"/>
<path d="M60.8 0V80" stroke="#1A1A1A" stroke-miterlimit="10"/>
<path d="M68.4 0V80" stroke="#1A1A1A" stroke-miterlimit="10"/>
<path d="M76 0V80" stroke="#1A1A1A" stroke-miterlimit="10"/>
<path d="M83.6 0V80" stroke="#1A1A1A" stroke-miterlimit="10"/>
<path d="M91.2 0V80" stroke="#1A1A1A" stroke-miterlimit="10"/>
<path d="M98.8 0V80" stroke="#1A1A1A" stroke-miterlimit="10"/>
<path d="M106.4 0V80" stroke="#1A1A1A" stroke-miterlimit="10"/>
<path d="M114 0V80" stroke="#1A1A1A" stroke-miterlimit="10"/>
<path d="M121.6 0V80" stroke="#1A1A1A" stroke-miterlimit="10"/>
<path d="M129.2 0V80" stroke="#1A1A1A" stroke-miterlimit="10"/>
<path d="M136.8 0V80" stroke="#1A1A1A" stroke-miterlimit="10"/>
<path d="M144.4 0V80" stroke="#1A1A1A" stroke-miterlimit="10"/>
<g clip-path="url(#clip1_1_730)">
<path d="M14.44 16.4H-2.85V63.4H14.44V16.4Z" stroke="#F2F2F2" stroke-width="6" stroke-miterlimit="10"/>
<path d="M76 0V80" stroke="#F2F2F2" stroke-width="6" stroke-miterlimit="10"/>
<path d="M76 55.4C84.0799 55.4 90.63 48.5052 90.63 40C90.63 31.4948 84.0799 24.6 76 24.6C67.9201 24.6 61.37 31.4948 61.37 40C61.37 48.5052 67.9201 55.4 76 55.4Z" stroke="#F2F2F2" stroke-width="6" stroke-miterlimit="10"/>
<path d="M154.85 16.6H137.56V63.6H154.85V16.6Z" stroke="#F2F2F2" stroke-width="6" stroke-miterlimit="10"/>
<path d="M7.6 0V80" stroke="#CCCCCC" stroke-miterlimit="10"/>
<path d="M152 72.1L0 71.9" stroke="#CCCCCC" stroke-miterlimit="10"/>
<path d="M152 64.1L0 63.9" stroke="#CCCCCC" stroke-miterlimit="10"/>
<path d="M152 56.1L0 55.9" stroke="#CCCCCC" stroke-miterlimit="10"/>
<path d="M152 48.1L0 47.9" stroke="#CCCCCC" stroke-miterlimit="10"/>
<path d="M152 40.1L0 39.9" stroke="#CCCCCC" stroke-miterlimit="10"/>
<path d="M152 32.1L0 31.9" stroke="#CCCCCC" stroke-miterlimit="10"/>
<path d="M152 24.1L0 23.9" stroke="#CCCCCC" stroke-miterlimit="10"/>
<path d="M152 16.1L0 15.9" stroke="#CCCCCC" stroke-miterlimit="10"/>
<path d="M152 8.10002L0 7.90002" stroke="#CCCCCC" stroke-miterlimit="10"/>
<path d="M15.2 0V80" stroke="#CCCCCC" stroke-miterlimit="10"/>
<path d="M22.8 0V80" stroke="#CCCCCC" stroke-miterlimit="10"/>
<path d="M30.4 0V80" stroke="#CCCCCC" stroke-miterlimit="10"/>
<path d="M38 0V80" stroke="#CCCCCC" stroke-miterlimit="10"/>
<path d="M45.6 0V80" stroke="#CCCCCC" stroke-miterlimit="10"/>
<path d="M53.2 0V80" stroke="#CCCCCC" stroke-miterlimit="10"/>
<path d="M60.8 0V80" stroke="#CCCCCC" stroke-miterlimit="10"/>
<path d="M68.4 0V80" stroke="#CCCCCC" stroke-miterlimit="10"/>
<path d="M76 0V80" stroke="#CCCCCC" stroke-miterlimit="10"/>
<path d="M83.6 0V80" stroke="#CCCCCC" stroke-miterlimit="10"/>
<path d="M91.2 0V80" stroke="#CCCCCC" stroke-miterlimit="10"/>
<path d="M98.8 0V80" stroke="#CCCCCC" stroke-miterlimit="10"/>
<path d="M106.4 0V80" stroke="#CCCCCC" stroke-miterlimit="10"/>
<path d="M114 0V80" stroke="#CCCCCC" stroke-miterlimit="10"/>
<path d="M121.6 0V80" stroke="#CCCCCC" stroke-miterlimit="10"/>
<path d="M129.2 0V80" stroke="#CCCCCC" stroke-miterlimit="10"/>
<path d="M136.8 0V80" stroke="#CCCCCC" stroke-miterlimit="10"/>
<path d="M144.4 0V80" stroke="#CCCCCC" stroke-miterlimit="10"/>
</g>
</g>
<defs>
<clipPath id="clip0_1_730">
<rect width="152" height="80" rx="12" fill="white"/>
</clipPath>
<clipPath id="clip1_1_730">
<rect width="152" height="80" fill="white"/>
</clipPath>
</defs>
</svg>
