<svg xmlns="http://www.w3.org/2000/svg" width="169.986" height="79.007" viewBox="0 0 169.986 79.007">
  <g id="matchstats" transform="translate(-621.659 -245.301)">
    <rect id="Rectangle_448" data-name="Rectangle 448" width="169.986" height="79.007" transform="translate(621.659 245.301)" fill="#fff"/>
    <rect id="Rectangle_479" data-name="Rectangle 479" width="18.47" height="1.786" transform="translate(686.529 268.139)" fill="#bababa"/>
    <rect id="Rectangle_480" data-name="Rectangle 480" width="18.47" height="1.786" transform="translate(704.997 268.139)" fill="#a3a3a3"/>
    <rect id="Rectangle_481" data-name="Rectangle 481" width="25.828" height="1.786" transform="translate(704.998 273.319)" fill="#a3a3a3"/>
    <rect id="Rectangle_482" data-name="Rectangle 482" width="25.829" height="1.786" transform="translate(679.169 273.32)" fill="#bababa"/>
    <rect id="Rectangle_483" data-name="Rectangle 483" width="9.235" height="1.786" transform="translate(695.763 278.5)" fill="#bababa"/>
    <rect id="Rectangle_484" data-name="Rectangle 484" width="9.235" height="1.786" transform="translate(704.998 278.5)" fill="#a3a3a3"/>
    <rect id="Rectangle_485" data-name="Rectangle 485" width="33.028" height="1.786" transform="translate(671.97 270.729)" fill="#bababa"/>
    <rect id="Rectangle_486" data-name="Rectangle 486" width="33.028" height="1.786" transform="translate(704.997 270.729)" fill="#a3a3a3"/>
    <rect id="Rectangle_487" data-name="Rectangle 487" width="37.926" height="1.786" transform="translate(667.072 281.09)" fill="#bababa"/>
    <rect id="Rectangle_488" data-name="Rectangle 488" width="37.926" height="1.786" transform="translate(704.998 281.09)" fill="#a3a3a3"/>
    <rect id="Rectangle_489" data-name="Rectangle 489" width="37.926" height="1.786" transform="translate(704.998 275.909)" fill="#a3a3a3"/>
    <rect id="Rectangle_490" data-name="Rectangle 490" width="37.926" height="1.786" transform="translate(667.072 275.909)" fill="#bababa"/>
    <rect id="Rectangle_491" data-name="Rectangle 491" width="37.926" height="1.786" transform="translate(667.072 294.041)" fill="#bababa"/>
    <rect id="Rectangle_492" data-name="Rectangle 492" width="37.926" height="1.786" transform="translate(704.998 294.041)" fill="#a3a3a3"/>
    <rect id="Rectangle_493" data-name="Rectangle 493" width="42.337" height="1.786" transform="translate(662.661 283.68)" fill="#bababa"/>
    <rect id="Rectangle_494" data-name="Rectangle 494" width="42.336" height="1.786" transform="translate(704.998 283.68)" fill="#a3a3a3"/>
    <rect id="Rectangle_495" data-name="Rectangle 495" width="12.947" height="1.786" transform="translate(704.998 288.86)" fill="#a3a3a3"/>
    <rect id="Rectangle_496" data-name="Rectangle 496" width="12.948" height="1.786" transform="translate(692.05 288.86)" fill="#bababa"/>
    <rect id="Rectangle_497" data-name="Rectangle 497" width="12.947" height="1.786" transform="translate(704.998 286.27)" fill="#a3a3a3"/>
    <rect id="Rectangle_498" data-name="Rectangle 498" width="12.948" height="1.786" transform="translate(692.05 286.27)" fill="#bababa"/>
    <rect id="Rectangle_499" data-name="Rectangle 499" width="5.243" height="1.786" transform="translate(699.755 291.45)" fill="#bababa"/>
    <rect id="Rectangle_500" data-name="Rectangle 500" width="5.243" height="1.786" transform="translate(704.997 291.451)" fill="#a3a3a3"/>
    <rect id="Rectangle_501" data-name="Rectangle 501" width="11.717" height="1.786" transform="translate(693.282 296.631)" fill="#bababa"/>
    <rect id="Rectangle_502" data-name="Rectangle 502" width="11.717" height="1.786" transform="translate(704.998 296.631)" fill="#a3a3a3"/>
    <rect id="Rectangle_503" data-name="Rectangle 503" width="28.91" height="1.786" transform="translate(676.088 299.221)" fill="#bababa"/>
    <rect id="Rectangle_504" data-name="Rectangle 504" width="28.91" height="1.786" transform="translate(704.998 299.221)" fill="#a3a3a3"/>
    <rect id="Rectangle_505" data-name="Rectangle 505" width="21.168" height="1.786" transform="translate(704.998 301.811)" fill="#a3a3a3"/>
    <rect id="Rectangle_506" data-name="Rectangle 506" width="21.168" height="1.786" transform="translate(683.829 301.811)" fill="#bababa"/>
    <rect id="Rectangle_507" data-name="Rectangle 507" width="33.116" height="1.786" transform="translate(704.998 265.549)" fill="#a3a3a3"/>
    <rect id="Rectangle_508" data-name="Rectangle 508" width="33.116" height="1.786" transform="translate(671.882 265.549)" fill="#bababa"/>
  </g>
</svg>
