<svg xmlns="http://www.w3.org/2000/svg" width="169.986" height="79.007" viewBox="0 0 169.986 79.007">
  <g id="playerstats" transform="translate(-619.746 -493.301)">
    <rect id="Rectangle_511" data-name="Rectangle 511" width="169.986" height="79.007" transform="translate(619.746 493.301)" fill="#fff"/>
    <rect id="Rectangle_460" data-name="Rectangle 460" width="3.825" height="17.561" transform="translate(658.453 535.371)" fill="#d2d1d1"/>
    <rect id="Rectangle_461" data-name="Rectangle 461" width="3.825" height="24.558" transform="translate(669.547 528.374)" fill="#d2d1d1"/>
    <rect id="Rectangle_462" data-name="Rectangle 462" width="3.825" height="8.781" transform="translate(680.64 544.151)" fill="#d2d1d1"/>
    <rect id="Rectangle_463" data-name="Rectangle 463" width="3.825" height="31.403" transform="translate(664 521.529)" fill="#d2d1d1"/>
    <rect id="Rectangle_464" data-name="Rectangle 464" width="3.825" height="36.061" transform="translate(686.187 516.871)" fill="#d2d1d1"/>
    <rect id="Rectangle_465" data-name="Rectangle 465" width="3.825" height="36.061" transform="translate(675.093 516.871)" fill="#d2d1d1"/>
    <rect id="Rectangle_466" data-name="Rectangle 466" width="3.825" height="36.061" transform="translate(713.92 516.871)" fill="#d2d1d1"/>
    <rect id="Rectangle_467" data-name="Rectangle 467" width="3.825" height="40.255" transform="translate(691.734 512.677)" fill="#d2d1d1"/>
    <rect id="Rectangle_468" data-name="Rectangle 468" width="3.825" height="12.311" transform="translate(702.827 540.621)" fill="#d2d1d1"/>
    <rect id="Rectangle_469" data-name="Rectangle 469" width="3.825" height="12.311" transform="translate(697.28 540.621)" fill="#d2d1d1"/>
    <rect id="Rectangle_470" data-name="Rectangle 470" width="3.825" height="4.985" transform="translate(708.374 547.947)" fill="#d2d1d1"/>
    <rect id="Rectangle_471" data-name="Rectangle 471" width="3.825" height="11.14" transform="translate(719.467 541.792)" fill="#d2d1d1"/>
    <rect id="Rectangle_472" data-name="Rectangle 472" width="3.825" height="27.489" transform="translate(725.014 525.443)" fill="#d2d1d1"/>
    <rect id="Rectangle_473" data-name="Rectangle 473" width="3.825" height="20.127" transform="translate(730.56 532.805)" fill="#d2d1d1"/>
    <rect id="Rectangle_474" data-name="Rectangle 474" width="3.825" height="37.138" transform="translate(736.107 515.794)" fill="#d2d1d1"/>
    <rect id="Rectangle_475" data-name="Rectangle 475" width="3.825" height="34.492" transform="translate(741.654 518.44)" fill="#d2d1d1"/>
    <rect id="Rectangle_476" data-name="Rectangle 476" width="3.825" height="10.064" transform="translate(747.199 542.868)" fill="#d2d1d1"/>
    <rect id="Rectangle_477" data-name="Rectangle 477" width="3.825" height="27.489" transform="translate(752.746 525.443)" fill="#d2d1d1"/>
    <rect id="Rectangle_478" data-name="Rectangle 478" width="3.825" height="31.488" transform="translate(652.906 521.444)" fill="#d2d1d1"/>
  </g>
</svg>
