<svg xmlns="http://www.w3.org/2000/svg" width="169.986" height="79.007" viewBox="0 0 169.986 79.007">
  <g id="seasonstats" transform="translate(-610.566 -658.301)">
    <rect id="Rectangle_512" data-name="Rectangle 512" width="169.986" height="79.007" transform="translate(610.566 658.301)" fill="#fff"/>
    <line id="Line_27" data-name="Line 27" y1="41.046" transform="translate(645.624 677.281)" fill="none" stroke="#bababa" stroke-miterlimit="10" stroke-width="1"/>
    <line id="Line_28" data-name="Line 28" y1="41.046" transform="translate(659.418 677.281)" fill="none" stroke="#bababa" stroke-miterlimit="10" stroke-width="1"/>
    <line id="Line_29" data-name="Line 29" y1="41.046" transform="translate(673.213 677.281)" fill="none" stroke="#bababa" stroke-miterlimit="10" stroke-width="1"/>
    <line id="Line_30" data-name="Line 30" y1="41.046" transform="translate(687.008 677.281)" fill="none" stroke="#bababa" stroke-miterlimit="10" stroke-width="1"/>
    <line id="Line_31" data-name="Line 31" y1="41.046" transform="translate(700.803 677.281)" fill="none" stroke="#bababa" stroke-miterlimit="10" stroke-width="1"/>
    <line id="Line_32" data-name="Line 32" y1="41.046" transform="translate(714.597 677.281)" fill="none" stroke="#bababa" stroke-miterlimit="10" stroke-width="1"/>
    <line id="Line_33" data-name="Line 33" y1="41.046" transform="translate(728.392 677.281)" fill="none" stroke="#bababa" stroke-miterlimit="10" stroke-width="1"/>
    <line id="Line_34" data-name="Line 34" y1="41.046" transform="translate(742.187 677.281)" fill="none" stroke="#bababa" stroke-miterlimit="10" stroke-width="1"/>
    <path id="Path_159" data-name="Path 159" d="M51.961,294.834a1.467,1.467,0,1,1-1.467-1.467,1.467,1.467,0,0,1,1.467,1.467" transform="translate(595.13 404.316)" fill="#a3a3a3"/>
    <circle id="Ellipse_5" data-name="Ellipse 5" cx="1.467" cy="1.467" r="1.467" transform="translate(644.157 697.683)" fill="none" stroke="#a3a3a3" stroke-miterlimit="10" stroke-width="0.75"/>
    <path id="Path_160" data-name="Path 160" d="M65.756,289.176a1.467,1.467,0,1,1-1.467-1.467,1.467,1.467,0,0,1,1.467,1.467" transform="translate(595.13 404.316)" fill="#a3a3a3"/>
    <circle id="Ellipse_6" data-name="Ellipse 6" cx="1.467" cy="1.467" r="1.467" transform="translate(657.952 692.025)" fill="none" stroke="#a3a3a3" stroke-miterlimit="10" stroke-width="0.75"/>
    <path id="Path_161" data-name="Path 161" d="M79.551,298.206a1.467,1.467,0,1,1-1.467-1.467,1.467,1.467,0,0,1,1.467,1.467" transform="translate(595.13 404.316)" fill="#a3a3a3"/>
    <circle id="Ellipse_7" data-name="Ellipse 7" cx="1.467" cy="1.467" r="1.467" transform="translate(671.746 701.054)" fill="none" stroke="#a3a3a3" stroke-miterlimit="10" stroke-width="0.75"/>
    <path id="Path_162" data-name="Path 162" d="M93.345,290.643a1.467,1.467,0,1,1-1.467-1.467,1.467,1.467,0,0,1,1.467,1.467" transform="translate(595.13 404.316)" fill="#a3a3a3"/>
    <circle id="Ellipse_8" data-name="Ellipse 8" cx="1.467" cy="1.467" r="1.467" transform="translate(685.541 693.492)" fill="none" stroke="#a3a3a3" stroke-miterlimit="10" stroke-width="0.75"/>
    <path id="Path_163" data-name="Path 163" d="M107.14,285.952a1.467,1.467,0,1,1-1.467-1.467,1.467,1.467,0,0,1,1.467,1.467" transform="translate(595.13 404.316)" fill="#a3a3a3"/>
    <circle id="Ellipse_9" data-name="Ellipse 9" cx="1.467" cy="1.467" r="1.467" transform="translate(699.336 688.801)" fill="none" stroke="#a3a3a3" stroke-miterlimit="10" stroke-width="0.75"/>
    <path id="Path_164" data-name="Path 164" d="M120.935,294.834a1.467,1.467,0,1,1-1.467-1.467,1.467,1.467,0,0,1,1.467,1.467" transform="translate(595.13 404.316)" fill="#a3a3a3"/>
    <circle id="Ellipse_10" data-name="Ellipse 10" cx="1.467" cy="1.467" r="1.467" transform="translate(713.13 697.683)" fill="none" stroke="#a3a3a3" stroke-miterlimit="10" stroke-width="0.75"/>
    <path id="Path_165" data-name="Path 165" d="M134.73,302.456a1.467,1.467,0,1,1-1.467-1.467,1.467,1.467,0,0,1,1.467,1.467" transform="translate(595.13 404.316)" fill="#a3a3a3"/>
    <circle id="Ellipse_11" data-name="Ellipse 11" cx="1.467" cy="1.467" r="1.467" transform="translate(726.925 705.305)" fill="none" stroke="#a3a3a3" stroke-miterlimit="10" stroke-width="0.75"/>
    <path id="Path_166" data-name="Path 166" d="M148.524,287.709a1.467,1.467,0,1,1-1.467-1.467,1.467,1.467,0,0,1,1.467,1.467" transform="translate(595.13 404.316)" fill="#a3a3a3"/>
    <circle id="Ellipse_12" data-name="Ellipse 12" cx="1.467" cy="1.467" r="1.467" transform="translate(740.72 690.557)" fill="none" stroke="#a3a3a3" stroke-miterlimit="10" stroke-width="0.75"/>
    <line id="Line_35" data-name="Line 35" y1="5.658" x2="13.795" transform="translate(645.624 693.492)" fill="#a3a3a3"/>
    <line id="Line_36" data-name="Line 36" y1="5.658" x2="13.795" transform="translate(645.624 693.492)" fill="none" stroke="#a3a3a3" stroke-miterlimit="10" stroke-width="0.75"/>
    <line id="Line_37" data-name="Line 37" x2="13.795" y2="9.03" transform="translate(659.418 693.492)" fill="#a3a3a3"/>
    <line id="Line_38" data-name="Line 38" x2="13.795" y2="9.03" transform="translate(659.418 693.492)" fill="none" stroke="#a3a3a3" stroke-miterlimit="10" stroke-width="0.75"/>
    <line id="Line_39" data-name="Line 39" x2="13.795" y2="7.622" transform="translate(714.597 699.15)" fill="#a3a3a3"/>
    <line id="Line_40" data-name="Line 40" x2="13.795" y2="7.622" transform="translate(714.597 699.15)" fill="none" stroke="#a3a3a3" stroke-miterlimit="10" stroke-width="0.75"/>
    <line id="Line_41" data-name="Line 41" y1="14.748" x2="13.795" transform="translate(728.392 692.024)" fill="#a3a3a3"/>
    <line id="Line_42" data-name="Line 42" y1="14.748" x2="13.795" transform="translate(728.392 692.024)" fill="none" stroke="#a3a3a3" stroke-miterlimit="10" stroke-width="0.75"/>
    <line id="Line_43" data-name="Line 43" y1="7.563" x2="13.795" transform="translate(673.213 694.958)" fill="#a3a3a3"/>
    <line id="Line_44" data-name="Line 44" y1="7.563" x2="13.795" transform="translate(673.213 694.958)" fill="none" stroke="#a3a3a3" stroke-miterlimit="10" stroke-width="0.75"/>
    <line id="Line_45" data-name="Line 45" y1="4.691" x2="13.795" transform="translate(687.008 690.268)" fill="#a3a3a3"/>
    <line id="Line_46" data-name="Line 46" y1="4.691" x2="13.795" transform="translate(687.008 690.268)" fill="none" stroke="#a3a3a3" stroke-miterlimit="10" stroke-width="0.75"/>
    <line id="Line_47" data-name="Line 47" x2="13.795" y2="8.882" transform="translate(700.803 690.268)" fill="#a3a3a3"/>
    <line id="Line_48" data-name="Line 48" x2="13.795" y2="8.882" transform="translate(700.803 690.268)" fill="none" stroke="#a3a3a3" stroke-miterlimit="10" stroke-width="0.75"/>
  </g>
</svg>
