<?xml version="1.0" encoding="UTF-8"?>
<svg id="Layer_2" data-name="Layer 2" xmlns="http://www.w3.org/2000/svg" viewBox="0 0 2355.02 1795.38">
  <defs>
    <style>
      .cls-1 {
        fill: #fff;
        stroke: #3c3c3b;
        stroke-miterlimit: 10;
      }
    </style>
  </defs>
  <g id="Layer_2-2" data-name="Layer 2">
    <g id="Vrstva_1" data-name="Vrstva 1">
      <path class="cls-1" d="m2354.52,852.23c0-36.28-25.92-87.74-149.4-126.83-85.63-27.1-198.9-42.03-318.95-42.03-101.57,0-198.29,10.68-277.52,30.39v-22.96h-.48c.34-2.97.48-5.76.48-8.34v-122.02h-.48c.34-2.97.48-5.75.48-8.33v-122.02h-.48c.34-2.97.48-5.76.48-8.34v-122.02h-.48c.34-2.97.48-5.75.48-8.33v-122.02c0-36.29-25.92-87.74-149.4-126.83C1373.62,15.43,1260.34.5,1140.29.5s-233.33,14.93-318.96,42.03c-123.48,39.08-149.4,90.54-149.4,126.83v122.02c0,2.58.14,5.37.48,8.33h-.48v122.02c0,2.58.14,5.37.48,8.34h-.48v122.02c0,2.58.14,5.37.48,8.33h-.48v122.02c0,2.58.14,5.37.48,8.34h-.48v122.02c0,2.58.14,5.37.48,8.33h-.48v122.02c0,2.58.14,5.37.48,8.34h-.48v7.91c-62.34-10.03-131.5-15.34-203.07-15.34-120.06,0-233.33,14.93-318.97,42.03C26.42,1025.21.5,1076.66.5,1112.95v122.02c0,2.58.14,5.37.48,8.33h-.48v122.02c0,2.58.14,5.37.48,8.34h-.48v122.02c0,2.58.14,5.37.48,8.33h-.48v122.02c0,16.4,5.62,41.22,32.39,66.33,41.6,39.05,115.98,62.41,171.05,75.14,77.51,17.91,169.12,27.38,264.92,27.38s187.41-9.47,264.91-27.38c55.07-12.73,129.44-36.1,171.04-75.14,26.78-25.13,32.4-49.94,32.4-66.33v-7.92c62.63,10.09,131.69,15.35,203.07,15.35,95.8,0,187.41-9.47,264.91-27.38,4.1-.95,8.3-1.95,12.6-3.03v22.98c0,16.4,5.62,41.22,32.4,66.33,41.6,39.05,115.98,62.41,171.05,75.14,77.51,17.91,169.12,27.38,264.92,27.38s187.41-9.47,264.91-27.38c55.07-12.73,129.44-36.1,171.04-75.14,26.78-25.13,32.4-49.94,32.4-66.33v-122.02h-.48c.34-2.97.48-5.75.48-8.33v-122.02h-.48c.34-2.97.48-5.76.48-8.34v-122.02h-.48c.34-2.97.48-5.75.48-8.33v-122.02h-.48c.34-2.97.48-5.76.48-8.34v-122.02h-.48c.34-2.97.48-5.75.48-8.33v-122.02h.01Zm-1477.61,632.18v11.29c0,8.12-7.27,16.63-13.36,22.35-5.98,5.61-13.46,11.11-22.34,16.45-20.2,12.16-47.57,23.47-80.57,33.29-12.68,3.77-26.2,7.33-40.45,10.62-73.12,16.9-160.03,25.83-251.33,25.83s-178.22-8.94-251.35-25.83c-67.62-15.63-118.53-37.06-143.36-60.36-6.09-5.72-13.35-14.23-13.35-22.35v-34.46c79.48,50.17,235.45,81.28,408.06,81.28,81.69,0,159.67-6.97,227.56-19.63,26.65-4.97,51.75-10.82,74.91-17.46,28.73-8.24,54.48-17.72,76.52-28.27,3.74-1.79,7.36-3.61,10.88-5.46,6.44-3.38,12.51-6.87,18.18-10.45v23.16h0ZM60.8,1200.52c.62.39,1.25.78,1.88,1.17,2.39,1.48,4.84,2.94,7.36,4.38,4.17,2.39,8.51,4.73,13.03,7.02,1.4.71,2.82,1.42,4.25,2.12,2.29,1.12,4.62,2.23,6.99,3.32.77.35,1.53.71,2.31,1.06.78.36,1.56.71,2.35,1.06,1.57.7,3.17,1.4,4.78,2.09.8.34,1.61.69,2.42,1.03,13.18,5.57,27.44,10.79,42.67,15.64.72.23,1.45.46,2.18.69.95.3,1.89.59,2.85.89.68.2,1.35.42,2.03.62l2.67.81c3.36,1.01,6.78,2,10.23,2.99.86.24,1.71.48,2.57.72.99.28,1.99.55,2.99.83,1.22.34,2.45.67,3.68,1,.78.21,1.57.42,2.36.63,8.11,2.14,16.43,4.2,24.96,6.15,1,.23,2.01.46,3.02.69,3.28.74,6.59,1.46,9.92,2.17,1.09.24,2.18.46,3.28.69s2.2.46,3.29.68c2.76.57,5.54,1.12,8.34,1.67,1.11.22,2.22.43,3.33.65,3.01.58,6.04,1.15,9.1,1.7l2.61.47c1.36.24,2.73.48,4.09.72.93.16,1.87.33,2.81.49,2.35.4,4.72.8,7.1,1.19,1.13.19,2.26.37,3.39.55.06,0,.12.02.18.03,1.15.18,2.29.36,3.44.54,2.35.37,4.7.74,7.07,1.09,1.03.16,2.04.31,3.07.46,1.98.29,3.97.58,5.97.86,1.01.14,2.02.29,3.04.43,1.17.16,2.35.33,3.52.49,1.34.18,2.69.36,4.04.54,1.07.14,2.14.28,3.21.42,1.21.16,2.41.31,3.62.46,2.02.25,4.04.51,6.07.75,2.36.29,4.73.57,7.11.84,5.63.65,11.3,1.25,17.02,1.83,3.15.31,6.31.62,9.49.92.33.03.65.06.98.09,3.47.32,6.95.63,10.44.92.79.07,1.58.13,2.37.2.77.07,1.55.13,2.33.19,7.62.62,15.29,1.16,23.04,1.65l3.87.24c2.59.16,5.18.3,7.78.44,1.95.11,3.91.21,5.87.31.47.02.94.05,1.41.07,1.31.07,2.64.13,3.95.19,1.31.06,2.64.12,3.96.17,1.32.06,2.65.11,3.97.16.28.01.56.02.84.04,1.18.05,2.36.09,3.55.13.43.02.87.04,1.3.05,2.09.08,4.17.14,6.27.21.46.02.93.03,1.4.04.97.03,1.95.06,2.93.08,4.38.13,8.79.23,13.21.31.92.02,1.84.04,2.76.05,2.92.05,5.84.09,8.77.12,2.32.02,4.64.05,6.96.06,2.8.02,5.61.02,8.42.02s5.6,0,8.39-.02c2.33-.01,4.66-.04,6.99-.06,2.93-.03,5.86-.07,8.77-.12.94-.01,1.88-.03,2.82-.05,4.4-.08,8.78-.19,13.15-.31.95-.02,1.89-.05,2.84-.08.49-.01.99-.02,1.48-.04,2.08-.07,4.15-.13,6.22-.21.45-.01.9-.03,1.35-.05,1.18-.04,2.36-.08,3.53-.13.29-.01.57-.02.86-.04,1.33-.05,2.65-.1,3.97-.16,1.32-.05,2.64-.11,3.96-.17s2.64-.12,3.95-.19c.49-.02,1-.05,1.49-.07,1.94-.1,3.87-.19,5.79-.3,2.6-.14,5.19-.28,7.78-.44,1.29-.08,2.59-.16,3.88-.24,7.74-.48,15.42-1.03,23.04-1.65.75-.06,1.5-.12,2.24-.18.82-.07,1.63-.13,2.45-.21,3.5-.29,6.98-.6,10.45-.92.32-.03.65-.06.97-.09,3.15-.3,6.3-.6,9.44-.91,5.74-.58,11.44-1.19,17.09-1.85,1.14-.13,2.27-.26,3.41-.4,1.23-.14,2.45-.29,3.68-.44,2.03-.24,4.05-.49,6.07-.75,1.21-.15,2.41-.31,3.62-.46l3.21-.42c1.35-.18,2.7-.36,4.04-.54,1.18-.16,2.35-.33,3.52-.49,1.02-.14,2.03-.28,3.04-.43,2-.28,3.99-.57,5.97-.86,1.03-.15,2.04-.3,3.07-.46,2.37-.36,4.72-.72,7.07-1.09,1.15-.18,2.29-.36,3.44-.54h.04s.1-.02.14-.02c1.13-.18,2.26-.37,3.39-.55,2.38-.39,4.75-.79,7.1-1.19.94-.16,1.88-.33,2.81-.49,1.37-.24,2.74-.48,4.09-.72l2.6-.47c1.46-.27,2.91-.53,4.35-.8,1.59-.3,3.17-.6,4.75-.9,1.12-.21,2.22-.43,3.33-.65,2.8-.55,5.58-1.1,8.34-1.67,1.1-.22,2.2-.45,3.29-.68,1.1-.23,2.19-.46,3.28-.69,3.33-.71,6.65-1.44,9.92-2.17,1.01-.23,2.01-.46,3.02-.69,8.53-1.95,16.85-4.01,24.96-6.15.95-.25,1.89-.5,2.83-.75.42-.11.83-.23,1.24-.34.11-.03.22-.06.34-.09.11-.03.22-.06.33-.09h0l1.29-.36c1-.27,2-.55,2.99-.83.99-.28,1.98-.55,2.97-.83.68-.19,1.35-.39,2.02-.58,2.76-.79,5.49-1.59,8.19-2.41.77-.23,1.54-.46,2.3-.7.68-.2,1.35-.42,2.03-.62.95-.3,1.9-.59,2.85-.89.91-.28,1.82-.57,2.72-.86,4.72-1.51,9.34-3.05,13.87-4.63.9-.31,1.8-.63,2.69-.95,4.46-1.58,8.82-3.2,13.09-4.84.85-.33,1.7-.66,2.54-.99,3.38-1.33,6.69-2.68,9.94-4.05.81-.34,1.62-.69,2.42-1.03,4.78-2.06,9.41-4.16,13.88-6.3,2.3-1.1,4.56-2.22,6.78-3.35.73-.37,1.45-.74,2.16-1.11.65-.33,1.29-.67,1.93-1.01,6.44-3.38,12.51-6.87,18.18-10.45v34.45c0,8.12-7.27,16.63-13.36,22.35-5.98,5.61-13.47,11.11-22.34,16.45-3,1.81-6.15,3.59-9.46,5.35-18.99,10.13-43,19.57-71.1,27.93-3.46,1.03-6.98,2.04-10.56,3.03-5.8,1.62-11.75,3.18-17.86,4.7-3.95.98-7.96,1.95-12.04,2.89-15.5,3.58-31.62,6.81-48.27,9.66-61.9,10.63-131.12,16.17-203.07,16.17-91.31,0-178.22-8.94-251.35-25.83-67.62-15.63-118.54-37.06-143.36-60.36-6.09-5.72-13.35-14.23-13.35-22.35v-34.45h.02Zm875.99-95.6c62,10.01,131.29,15.45,203.5,15.45,102.56,0,199.26-10.98,277.51-30.43v14.67c0,2.58.14,5.37.48,8.34h-.48v36.74c-8.41,2.29-17.14,4.48-26.17,6.57-73.12,16.9-160.04,25.83-251.34,25.83-71.95,0-141.18-5.55-203.07-16.17v-52.97c0-2.6-.13-5.28-.43-8.03h0Zm-204.56-848c.62.39,1.25.78,1.88,1.17,1.25.78,2.53,1.55,3.82,2.32,0,0,.01,0,.02.01,1.16.69,2.34,1.38,3.53,2.05,8.19,4.69,17.06,9.2,26.58,13.51.78.36,1.56.71,2.35,1.06.78.35,1.57.7,2.37,1.05,20.01,8.76,42.68,16.7,67.54,23.73.83.23,1.66.47,2.49.7,4.08,1.14,8.23,2.26,12.43,3.35.9.23,1.82.46,2.73.7,6.19,1.58,12.49,3.11,18.91,4.58,1.04.24,2.09.48,3.13.71,1.07.24,2.15.48,3.23.72,2.15.48,4.32.95,6.5,1.41,1.09.23,2.18.46,3.28.69,1.1.23,2.2.46,3.29.68,2.76.57,5.55,1.13,8.35,1.67,1.11.22,2.22.43,3.34.65.93.18,1.87.36,2.81.54,7.51,1.42,15.14,2.76,22.9,4.03,1.01.17,2.01.33,3.02.49.27.04.54.09.81.13,1.06.17,2.12.34,3.18.5,2.35.37,4.7.74,7.07,1.09,1.02.16,2.04.31,3.07.46,1.92.28,3.86.57,5.8.84,1.07.16,2.13.31,3.21.45,1.19.17,2.38.33,3.58.49,1.22.17,2.44.33,3.66.49,2.38.31,4.76.62,7.15.92,2.01.26,4.03.51,6.06.75,2.3.28,4.62.55,6.94.82,5.62.65,11.28,1.26,16.99,1.83,3.21.33,6.44.64,9.68.94.33.03.65.06.98.09,3.47.32,6.95.63,10.44.92.79.07,1.58.13,2.38.2.77.07,1.54.13,2.32.19,7.62.62,15.3,1.16,23.04,1.65,1.29.08,2.58.16,3.88.24,2.59.16,5.18.3,7.77.44,1.98.11,3.96.21,5.95.31.44.02.89.05,1.33.07,1.31.07,2.64.13,3.95.19,1.32.06,2.64.12,3.96.17,1.33.06,2.65.11,3.97.16.28.01.55.02.83.03,1.19.05,2.38.1,3.57.14.47.02.94.04,1.42.05,2.04.07,4.09.14,6.14.2.46.02.93.03,1.4.04.98.03,1.95.06,2.93.08,4.39.13,8.79.23,13.21.31.92.02,1.84.04,2.76.05,2.92.05,5.84.09,8.77.12,2.32.02,4.64.05,6.96.06,2.8.02,5.61.02,8.42.02s5.62,0,8.42-.02c2.32-.01,4.64-.04,6.96-.06,2.93-.03,5.86-.07,8.77-.12.92-.01,1.84-.03,2.76-.05,4.41-.08,8.82-.19,13.21-.31.98-.02,1.95-.05,2.93-.08.46-.01.93-.02,1.4-.04,2.05-.07,4.1-.13,6.15-.2.48-.02.95-.04,1.42-.05,1.19-.04,2.38-.08,3.57-.14.28,0,.55-.02.83-.03,1.33-.05,2.65-.1,3.97-.16,1.32-.05,2.64-.11,3.96-.17,1.31-.06,2.64-.12,3.95-.19.45-.02.89-.04,1.33-.07,1.98-.1,3.97-.2,5.95-.31,2.59-.14,5.19-.28,7.77-.44,1.3-.08,2.59-.16,3.88-.24,7.74-.48,15.42-1.03,23.04-1.65.75-.06,1.5-.12,2.24-.18.82-.07,1.63-.13,2.45-.21,3.5-.29,6.98-.6,10.45-.92.33-.03.65-.06.98-.09,3.2-.3,6.38-.61,9.55-.92,5.75-.58,11.46-1.19,17.13-1.85,2.32-.27,4.63-.54,6.94-.82,2.03-.24,4.05-.49,6.06-.75,2.33-.3,4.65-.59,6.97-.9,1.3-.17,2.61-.35,3.9-.52,1.18-.16,2.35-.33,3.52-.49,1.07-.14,2.14-.3,3.21-.45,1.94-.27,3.88-.55,5.8-.84,1.03-.15,2.04-.3,3.07-.46,2.36-.36,4.72-.72,7.07-1.09,1.15-.18,2.29-.36,3.44-.54.06-.01.12-.02.18-.03,1.13-.18,2.26-.37,3.39-.56,2.38-.39,4.75-.78,7.1-1.19.94-.16,1.88-.33,2.81-.49,1.37-.24,2.74-.48,4.09-.72.87-.16,1.74-.31,2.6-.47,3.06-.55,6.09-1.12,9.1-1.7,1.12-.21,2.23-.43,3.33-.65,2.8-.54,5.58-1.1,8.34-1.67,1.1-.22,2.2-.45,3.29-.68,1.1-.23,2.19-.46,3.28-.69,2.18-.46,4.35-.93,6.5-1.41,1.08-.24,2.15-.48,3.23-.72,1.07-.24,2.14-.48,3.21-.73,6.39-1.47,12.68-2.98,18.83-4.56.92-.23,1.83-.47,2.73-.7,1.14-.3,2.27-.59,3.4-.89.79-.21,1.58-.42,2.36-.63,1.23-.33,2.46-.66,3.68-1,1-.27,2-.55,2.99-.83.86-.24,1.72-.48,2.57-.72,4.11-1.16,8.15-2.35,12.14-3.56.93-.28,1.87-.57,2.79-.86.95-.3,1.9-.59,2.85-.89.73-.23,1.46-.46,2.18-.69,15.23-4.85,29.49-10.08,42.67-15.64.81-.34,1.62-.69,2.42-1.03.1-.04.2-.09.31-.13,1.28-.55,2.56-1.11,3.82-1.67,1.87-.83,3.71-1.66,5.54-2.51,1.19-.55,2.36-1.1,3.53-1.66,9.35-4.45,18.02-9.09,25.99-13.92,1.27-.77,2.52-1.54,3.75-2.32v34.45c0,8.12-7.27,16.63-13.36,22.35-24.82,23.3-75.72,44.73-143.35,60.36-73.12,16.9-160.03,25.83-251.33,25.83s-178.22-8.93-251.35-25.83c-67.62-15.63-118.53-37.06-143.36-60.36-6.09-5.72-13.35-14.23-13.35-22.35v-34.45l-.03.02Zm0,130.36c79.49,50.17,235.45,81.28,408.06,81.28s328.57-31.1,408.05-81.27v34.45c0,8.12-7.27,16.64-13.36,22.36-24.82,23.29-75.72,44.73-143.35,60.36-73.12,16.9-160.04,25.83-251.34,25.83s-178.22-8.93-251.35-25.83c-67.62-15.63-118.53-37.07-143.36-60.37-6.09-5.71-13.35-14.23-13.35-22.35v-34.45h0Zm0,130.37c79.49,50.17,235.45,81.28,408.06,81.28s328.57-31.1,408.05-81.28v34.45c0,8.12-7.27,16.63-13.36,22.35-24.82,23.3-75.72,44.73-143.35,60.36-73.12,16.9-160.04,25.83-251.34,25.83s-178.22-8.93-251.35-25.83c-67.62-15.63-118.53-37.06-143.36-60.36-6.09-5.72-13.35-14.23-13.35-22.35v-34.45h0Zm0,130.36c79.49,50.17,235.45,81.28,408.06,81.28s328.57-31.1,408.05-81.27v34.45c0,8.12-7.27,16.64-13.36,22.36-24.82,23.29-75.72,44.73-143.35,60.36-73.12,16.9-160.04,25.83-251.34,25.83s-178.22-8.93-251.35-25.83c-67.62-15.63-118.53-37.07-143.36-60.37-6.09-5.71-13.35-14.23-13.35-22.35v-34.45h0Zm0,130.36c79.49,50.17,235.45,81.28,408.06,81.28,104.27,0,202.47-11.35,281.4-31.4-2.8,8.47-3.88,16.54-3.88,23.98v36.74c-8.41,2.29-17.14,4.48-26.17,6.57-73.12,16.9-160.04,25.83-251.34,25.83s-178.22-8.93-251.35-25.83c-67.62-15.63-118.53-37.06-143.36-60.36-6.09-5.72-13.35-14.23-13.35-22.35v-34.45h-.01Zm686.05,595.3h-.48v36.74c-8.41,2.29-17.14,4.48-26.17,6.57-73.12,16.9-160.04,25.83-251.34,25.83-71.95,0-141.18-5.55-203.07-16.17v-52.97h-.48c.32-2.82.46-5.48.48-7.95,61.89,9.96,131.03,15.38,203.07,15.38,102.56,0,199.26-10.98,277.51-30.42v14.66c0,2.58.14,5.37.48,8.34h0Zm0-130.36h-.48v36.75c-8.41,2.29-17.14,4.48-26.17,6.57-73.12,16.9-160.04,25.83-251.34,25.83-71.95,0-141.18-5.55-203.07-16.17v-52.98h-.48c.32-2.82.46-5.48.48-7.95,61.89,9.96,131.03,15.38,203.07,15.38,102.56,0,199.26-10.98,277.51-30.42v14.67c0,2.58.14,5.37.48,8.33h0Zm-686.05-334.58c79.49,50.17,235.45,81.28,408.06,81.28,102.56,0,199.26-10.98,277.51-30.42v14.67c0,2.58.14,5.37.48,8.33h-.48v36.75c-8.41,2.29-17.14,4.48-26.17,6.57-73.12,16.9-160.04,25.83-251.34,25.83s-178.22-8.93-251.35-25.83c-6.37-1.47-12.6-3-18.66-4.57-20.86-12.3-47.83-24.24-82.47-35.21-8.1-2.56-16.46-5.02-25.04-7.36-6.65-4.32-12.4-8.74-17.19-13.23-6.09-5.71-13.35-14.23-13.35-22.35v-34.45h0ZM60.8,1330.88c79.48,50.17,235.45,81.28,408.06,81.28,72.04,0,141.18-5.42,203.07-15.38,8.3-1.34,16.46-2.76,24.49-4.25,23.13-4.31,45.1-9.29,65.64-14.86,3.12-.85,6.22-1.72,9.27-2.6,28.74-8.24,54.48-17.71,76.53-28.26,3.74-1.79,7.36-3.61,10.88-5.46,6.44-3.38,12.51-6.87,18.18-10.45v34.45c0,8.12-7.27,16.64-13.36,22.36-5.98,5.61-13.46,11.11-22.34,16.44-3,1.81-6.16,3.59-9.47,5.36-18.99,10.13-43.01,19.57-71.1,27.93-3.46,1.03-6.97,2.04-10.55,3.03-5.8,1.62-11.75,3.18-17.86,4.7-3.95.98-7.96,1.95-12.04,2.89-15.5,3.58-31.62,6.81-48.27,9.66-61.9,10.63-131.12,16.17-203.07,16.17-91.31,0-178.22-8.93-251.35-25.83-67.62-15.62-118.53-37.06-143.36-60.36-6.09-5.71-13.35-14.23-13.35-22.35v-34.47Zm2220.05,187.17c-24.81,23.3-75.72,44.73-143.35,60.36-73.12,16.9-160.03,25.83-251.33,25.83s-178.22-8.94-251.35-25.83c-32.99-7.63-62-16.63-85.95-26.56-25.14-10.43-44.7-21.87-57.41-33.81-.77-.72-1.56-1.49-2.35-2.3-5.46-5.57-11.01-12.96-11.01-20.05v-34.46c.62.39,1.24.78,1.86,1.16,15.22,9.41,33.14,18.14,53.36,26.1,18.72,7.38,39.41,14.09,61.76,20.09,80.51,21.62,182.5,33.93,291.07,33.93,172.61,0,328.57-31.11,408.05-81.28v34.45c0,8.12-7.27,16.63-13.36,22.35v.02Zm0-130.36c-24.81,23.29-75.72,44.73-143.35,60.35-73.12,16.9-160.03,25.83-251.33,25.83s-178.22-8.93-251.35-25.83c-9.03-2.09-17.76-4.28-26.17-6.57-22.32-6.05-42.38-12.78-59.77-19.99-22.88-9.49-41.13-19.82-53.82-30.6-1.25-1.06-2.45-2.13-3.6-3.21-.77-.72-1.56-1.49-2.35-2.3-5.46-5.56-11.01-12.95-11.01-20.05v-34.45c.62.39,1.23.77,1.85,1.16,15.22,9.41,33.14,18.13,53.37,26.1,2,.79,4.02,1.57,6.06,2.34,17.1,6.46,35.74,12.39,55.7,17.75,4.46,1.19,8.97,2.36,13.56,3.5,78.26,19.45,174.95,30.43,277.52,30.43,172.61,0,328.57-31.1,408.05-81.27v34.45c0,8.12-7.27,16.64-13.36,22.36Zm0-130.36c-24.81,23.3-75.72,44.73-143.35,60.36-73.12,16.9-160.03,25.83-251.33,25.83s-178.22-8.94-251.35-25.83c-9.03-2.09-17.76-4.28-26.17-6.57-22.32-6.06-42.38-12.78-59.77-20-22.88-9.49-41.14-19.82-53.82-30.59-1.25-1.07-2.45-2.13-3.59-3.21-.77-.72-1.56-1.49-2.35-2.3-5.46-5.57-11.01-12.96-11.01-20.05v-34.45c.62.39,1.23.77,1.85,1.16,15.22,9.41,33.14,18.13,53.37,26.1,2,.79,4.02,1.57,6.06,2.34,17.1,6.46,35.74,12.39,55.7,17.75,4.46,1.19,8.97,2.36,13.56,3.5,78.26,19.44,174.95,30.43,277.52,30.43,172.61,0,328.57-31.11,408.05-81.28v34.45c0,8.12-7.27,16.63-13.36,22.35h-.01Zm0-130.36c-24.81,23.29-75.72,44.73-143.35,60.35-73.12,16.9-160.03,25.83-251.33,25.83s-178.22-8.93-251.35-25.83c-9.03-2.09-17.76-4.28-26.17-6.56-22.32-6.06-42.38-12.78-59.77-20-22.88-9.49-41.13-19.82-53.82-30.6-1.25-1.06-2.45-2.13-3.6-3.21-.77-.72-1.56-1.49-2.35-2.3-5.46-5.56-11.01-12.95-11.01-20.05v-34.45c.62.39,1.23.77,1.85,1.16,15.22,9.41,33.14,18.14,53.37,26.1,2,.79,4.02,1.57,6.07,2.34,17.1,6.46,35.74,12.4,55.7,17.75,4.46,1.2,8.97,2.36,13.56,3.5,78.26,19.44,174.95,30.42,277.52,30.42,172.61,0,328.57-31.1,408.05-81.27v34.45c0,8.12-7.27,16.64-13.36,22.36h0Zm0-130.37c-24.81,23.3-75.72,44.73-143.35,60.36-73.12,16.9-160.03,25.83-251.33,25.83s-178.22-8.94-251.35-25.83c-9.03-2.09-17.76-4.28-26.17-6.57-22.32-6.05-42.39-12.78-59.78-19.99-22.88-9.49-41.13-19.82-53.82-30.6-1.25-1.06-2.45-2.13-3.59-3.2-.77-.72-1.56-1.49-2.35-2.3-5.46-5.57-11.01-12.96-11.01-20.05v-32.63c.62-.22,1.24-.44,1.85-.66.01,0,.02.01.02.01,1.66,1.03,3.35,2.04,5.07,3.05.9.52,1.8,1.05,2.71,1.57h.02c1.33.76,2.67,1.51,4.04,2.26,1.39.77,2.81,1.53,4.25,2.28.71.37,1.42.75,2.14,1.12s1.44.75,2.16,1.11c1.93.98,3.9,1.95,5.89,2.91,6.25,3.02,12.81,5.95,19.65,8.79.82.34,1.65.68,2.47,1.02,1.62.66,3.27,1.33,4.93,1.98h0c.87.34,1.75.69,2.64,1.03.85.33,1.71.66,2.57.99.28.11.57.22.86.33,3.84,1.45,7.75,2.87,11.74,4.26.63.22,1.25.44,1.89.66,3.35,1.16,6.77,2.3,10.23,3.43,1.43.46,2.86.92,4.31,1.38.05.02.1.03.15.05.89.28,1.77.56,2.67.83.68.21,1.35.42,2.03.63,1.59.49,3.18.97,4.79,1.45.88.26,1.76.52,2.65.78.66.2,1.33.39,2,.59.72.21,1.45.42,2.19.63,1.71.49,3.43.98,5.17,1.46.83.23,1.65.45,2.48.68,1.13.31,2.27.62,3.42.93,3.9,1.04,7.84,2.07,11.84,3.08.57.14,1.15.28,1.72.43.06.01.12.03.19.04,5.14,1.28,10.37,2.52,15.67,3.72,1.02.24,2.04.46,3.08.69,2.65.59,5.33,1.18,8.03,1.75,1.09.24,2.18.46,3.28.69s2.19.46,3.29.68c2.76.57,5.54,1.12,8.34,1.67,1.11.22,2.22.43,3.34.65,3.01.58,6.04,1.15,9.1,1.7.87.16,1.74.31,2.61.47,1.36.24,2.73.48,4.09.72.93.16,1.87.33,2.81.49,2.35.4,4.72.8,7.1,1.19,1.13.19,2.26.37,3.39.55.06,0,.12.02.18.03,1.15.18,2.29.36,3.44.54,2.35.37,4.7.74,7.07,1.09,1.03.16,2.04.31,3.07.46,1.98.29,3.97.58,5.97.86,1.01.14,2.02.29,3.04.43,1.17.16,2.35.33,3.52.49,1.34.18,2.69.36,4.04.54,1.07.14,2.14.28,3.21.42,1.21.16,2.41.31,3.62.46,2.02.25,4.04.51,6.07.75,2.36.29,4.73.57,7.11.84,5.63.65,11.3,1.25,17.02,1.83,3.15.31,6.31.62,9.49.92.33.03.65.06.98.09,3.47.32,6.95.63,10.44.92l2.37.2c.77.07,1.55.13,2.33.19,7.62.62,15.29,1.16,23.04,1.65,1.29.08,2.58.16,3.87.24,2.59.16,5.18.3,7.78.44,1.95.11,3.91.21,5.87.31.47.02.94.05,1.41.07,1.31.07,2.64.13,3.95.19,1.31.06,2.64.12,3.96.18s2.65.11,3.97.16c.28.01.56.02.84.04,1.18.05,2.36.09,3.55.13.43.02.87.04,1.3.05,2.09.08,4.17.14,6.27.21.46.02.93.03,1.4.04.97.03,1.95.06,2.93.08,4.38.13,8.79.23,13.21.31.92.02,1.84.04,2.76.05,2.92.05,5.84.09,8.77.12,2.32.02,4.64.05,6.96.06,2.8.02,5.61.02,8.42.02s5.62,0,8.42-.02c2.32-.01,4.64-.04,6.96-.06.68,0,1.35-.01,2.02-.02,1.66-.02,3.32-.04,4.97-.07.6-.01,1.19-.02,1.78-.03.92-.01,1.84-.03,2.76-.05,3.58-.07,7.16-.15,10.73-.24.93-.02,1.87-.05,2.8-.08,1.34-.04,2.67-.08,4-.12,2.67-.08,5.32-.17,7.98-.27,2.65-.1,5.3-.2,7.95-.32,1.32-.05,2.64-.11,3.96-.18,2.44-.11,4.88-.23,7.32-.35.19-.01.39-.02.57-.03,1.31-.07,2.62-.14,3.93-.21,2.39-.13,4.79-.27,7.18-.41,1.3-.07,2.59-.15,3.88-.24,2.83-.17,5.65-.36,8.47-.56,1.3-.08,2.59-.17,3.88-.27,2.57-.18,5.15-.37,7.71-.58,1.28-.1,2.56-.2,3.84-.3,1.28-.1,2.56-.21,3.83-.32,3.5-.29,6.98-.6,10.45-.92,4.12-.38,8.21-.78,12.29-1.19,2.13-.22,4.26-.44,6.37-.67.37-.04.74-.08,1.11-.12,2.1-.23,4.18-.46,6.27-.69.54-.06,1.07-.12,1.6-.19,3.56-.4,7.09-.83,10.61-1.27,1.22-.15,2.44-.31,3.66-.46,3.92-.5,7.82-1.02,11.69-1.55.86-.12,1.71-.24,2.56-.36,1.28-.17,2.55-.36,3.82-.54,1.19-.17,2.38-.34,3.57-.52,1.19-.17,2.37-.35,3.56-.53,2.36-.36,4.72-.72,7.07-1.09,1.15-.18,2.29-.36,3.44-.54.06-.01.12-.02.18-.03,2.94-.48,5.87-.96,8.77-1.45.57-.1,1.15-.19,1.71-.29,1.1-.19,2.2-.38,3.29-.57,1.15-.2,2.29-.4,3.43-.61,1.14-.21,2.28-.41,3.42-.62,1.13-.2,2.27-.42,3.4-.63,1.7-.31,3.39-.63,5.07-.96,1.12-.21,2.23-.43,3.33-.65,2.8-.54,5.58-1.1,8.34-1.67,1.1-.22,2.19-.45,3.29-.68s2.19-.46,3.28-.69c3.33-.71,6.65-1.43,9.92-2.17,1.01-.23,2.01-.46,3.02-.69,8.53-1.95,16.85-4,24.96-6.15.79-.21,1.58-.42,2.36-.63,1.23-.33,2.46-.66,3.68-1,1-.27,2-.55,2.99-.83.86-.24,1.72-.48,2.58-.72,4.11-1.16,8.15-2.35,12.14-3.56.93-.28,1.87-.57,2.79-.86.95-.3,1.9-.59,2.85-.89.73-.23,1.46-.46,2.18-.69,15.23-4.85,29.49-10.08,42.67-15.64.81-.34,1.62-.69,2.42-1.03,4.14-1.78,8.16-3.59,12.08-5.45.71-.33,1.42-.66,2.12-1,8.97-4.31,17.31-8.79,25-13.44,1.27-.77,2.52-1.54,3.75-2.32v34.45c0,8.12-7.27,16.63-13.36,22.35h-.02Zm-394.69-252.93c114.04,0,220.85,13.92,300.75,39.22,36.49,11.55,65.86,25.2,84.94,39.48,14.41,10.79,22.35,21.38,22.35,29.85s-7.27,16.63-13.37,22.35c-4.72,4.44-10.58,8.91-17.4,13.31-68.61,44.27-216.71,72.88-377.28,72.88-103.74,0-202.27-11.94-277.52-32.33-22.22-6.02-42.41-12.77-60.1-20.18-2.62-1.1-5.2-2.21-7.71-3.34-11.99-5.37-22.7-11.06-31.97-17.04-6.81-4.39-12.66-8.87-17.4-13.32-.77-.72-1.56-1.49-2.35-2.3-1.79-1.83-3.59-3.85-5.2-6-3.29-4.39-5.8-9.29-5.8-14.05,0-8.47,7.94-19.06,22.35-29.85,12.1-9.05,28.32-17.85,47.89-26.02,11.29-4.72,23.7-9.23,37.06-13.46,7.52-2.38,15.27-4.66,23.25-6.84,76.82-20.95,174.19-32.38,277.52-32.38v.02ZM754.58,139.5c19.08-14.28,48.45-27.93,84.94-39.48,79.9-25.29,186.72-39.22,300.77-39.22s220.86,13.92,300.76,39.22c36.48,11.55,65.86,25.2,84.94,39.48,14.41,10.79,22.35,21.39,22.35,29.85s-7.27,16.63-13.36,22.36c-4.73,4.43-10.58,8.91-17.4,13.31-68.61,44.27-216.7,72.88-377.29,72.88s-308.68-28.61-377.3-72.88c-6.81-4.39-12.66-8.87-17.4-13.32-6.09-5.72-13.35-14.23-13.35-22.35s7.94-19.06,22.35-29.85h0ZM83.15,1083.1c19.08-14.28,48.45-27.93,84.94-39.48,79.9-25.29,186.71-39.22,300.77-39.22,72.26,0,141.62,5.59,203.07,16.13,23.59,4.03,46,8.8,66.97,14.27,10.62,2.76,20.87,5.7,30.71,8.82,31.52,9.97,57.74,21.52,76.59,33.69,2.97,1.92,5.76,3.85,8.36,5.8,3.08,2.31,5.87,4.61,8.35,6.88,9.1,8.35,14.01,16.31,14.01,22.97,0,8.12-7.27,16.63-13.37,22.35-.59.55-1.2,1.11-1.83,1.66-.62.55-1.27,1.11-1.92,1.67-.49.42-1,.83-1.51,1.25s-1.04.83-1.57,1.25c-.26.21-.54.42-.81.63-.54.42-1.09.83-1.65,1.25-.28.21-.57.42-.85.63-1.11.81-2.26,1.62-3.43,2.43-1.24.85-2.51,1.7-3.82,2.54-1.65,1.07-3.35,2.12-5.09,3.17-18.46,11.1-42,21.16-69.48,29.96-3.55,1.14-7.17,2.26-10.85,3.35-9.12,2.71-18.63,5.29-28.49,7.74-18.88,4.68-39.06,8.85-60.29,12.46-61.09,10.41-130.83,16.2-203.09,16.2-160.58,0-308.68-28.61-377.3-72.88-6.81-4.39-12.66-8.87-17.4-13.32-6.09-5.72-13.35-14.23-13.35-22.35s7.94-19.06,22.35-29.85h-.02Zm793.76,542.96c0,8.12-7.27,16.64-13.36,22.36-24.81,23.29-75.72,44.73-143.35,60.35-73.12,16.9-160.03,25.83-251.33,25.83s-178.22-8.93-251.35-25.83c-67.62-15.62-118.53-37.06-143.36-60.36-6.09-5.71-13.35-14.23-13.35-22.35v-34.45c79.49,50.17,235.45,81.28,408.06,81.28,160.28,0,306.21-26.82,389.87-70.82,6.44-3.38,12.51-6.87,18.18-10.45v34.45h-.01Zm514.72-78.71c-73.12,16.9-160.04,25.83-251.34,25.83-71.95,0-141.18-5.55-203.07-16.17v-52.98h-.48c.32-2.82.46-5.48.48-7.95,61.89,9.96,131.03,15.38,203.07,15.38,102.56,0,199.26-10.98,277.51-30.42v14.67c0,2.58.14,5.37.48,8.33h-.48v36.75c-8.41,2.29-17.14,4.48-26.17,6.57h0Zm902.59,78.71c0,8.12-7.27,16.64-13.36,22.36-24.81,23.29-75.72,44.73-143.35,60.35-73.12,16.9-160.03,25.83-251.33,25.83s-178.22-8.93-251.35-25.83c-67.62-15.62-118.53-37.06-143.36-60.36-6.09-5.71-13.35-14.23-13.35-22.35v-34.45c79.49,50.17,235.45,81.28,408.06,81.28s328.57-31.1,408.05-81.27v34.45h-.01Z"/>
    </g>
  </g>
</svg>